HIERARCHY
ROOT Hips
{
 OFFSET 0.000000 0.000000 0.000000
 CHANNELS 6 Xposition Yposition Zposition Yrotation Xrotation Zrotation
 JOINT Chest
 {
  OFFSET 0.000000 9.588913 -0.003946
  CHANNELS 3 Yrotation Xrotation Zrotation
  JOINT Chest2
  {
   OFFSET 0.000000 9.541882 0.008053
   CHANNELS 3 Yrotation Xrotation Zrotation
   JOINT Chest3
   {
    OFFSET 0.000000 9.501360 0.000000
    CHANNELS 3 Yrotation Xrotation Zrotation
    JOINT Chest4
    {
     OFFSET 0.000000 9.491660 0.000000
     CHANNELS 3 Yrotation Xrotation Zrotation
     JOINT Neck
     {
      OFFSET 0.000000 14.331917 0.000000
      CHANNELS 3 Yrotation Xrotation Zrotation
      JOINT Head
      {
       OFFSET 0.000000 8.884799 0.017034
       CHANNELS 3 Yrotation Xrotation Zrotation
       End Site
       {
        OFFSET 0.000000 16.896195 0.008993
       }
      }
     }
     JOINT RightCollar
     {
      OFFSET -2.923010 9.499495 0.000000
      CHANNELS 3 Yrotation Xrotation Zrotation
      JOINT RightShoulder
      {
       OFFSET -13.795216 0.000000 0.000000
       CHANNELS 3 Yrotation Xrotation Zrotation
       JOINT RightElbow
       {
        OFFSET -30.272209 0.000000 0.000000
        CHANNELS 3 Yrotation Xrotation Zrotation
        JOINT RightWrist
        {
         OFFSET -24.478199 0.000000 0.000000
         CHANNELS 3 Yrotation Xrotation Zrotation
         End Site
         {
          OFFSET -18.090752 0.000000 0.000000
         }
        }
       }
      }
     }
     JOINT LeftCollar
     {
      OFFSET 2.923010 9.499495 0.000000
      CHANNELS 3 Yrotation Xrotation Zrotation
      JOINT LeftShoulder
      {
       OFFSET 13.795216 0.000000 0.000000
       CHANNELS 3 Yrotation Xrotation Zrotation
       JOINT LeftElbow
       {
        OFFSET 30.272209 0.000000 0.000000
        CHANNELS 3 Yrotation Xrotation Zrotation
        JOINT LeftWrist
        {
         OFFSET 24.478199 0.000000 0.000000
         CHANNELS 3 Yrotation Xrotation Zrotation
         End Site
         {
          OFFSET 18.090752 0.000000 0.000000
         }
        }
       }
      }
     }
    }
   }
  }
 }
 JOINT RightHip
 {
  OFFSET -7.826875 0.019532 0.001973
  CHANNELS 3 Yrotation Xrotation Zrotation
  JOINT RightKnee
  {
   OFFSET 0.000000 -40.546152 -0.001885
   CHANNELS 3 Yrotation Xrotation Zrotation
   JOINT RightAnkle
   {
    OFFSET 0.000000 -39.417092 -0.003189
    CHANNELS 3 Yrotation Xrotation Zrotation
    JOINT RightToe
    {
     OFFSET 0.000000 -7.579396 17.243563
     CHANNELS 3 Yrotation Xrotation Zrotation
     End Site
     {
      OFFSET 0.000000 -1.500329 6.694466
     }
    }
   }
  }
 }
 JOINT LeftHip
 {
  OFFSET 7.826875 0.019532 0.001973
  CHANNELS 3 Yrotation Xrotation Zrotation
  JOINT LeftKnee
  {
   OFFSET 0.000000 -40.546152 -0.001885
   CHANNELS 3 Yrotation Xrotation Zrotation
   JOINT LeftAnkle
   {
    OFFSET 0.000000 -39.417092 -0.003189
    CHANNELS 3 Yrotation Xrotation Zrotation
    JOINT LeftToe
    {
     OFFSET 0.000000 -7.579396 17.243563
     CHANNELS 3 Yrotation Xrotation Zrotation
     End Site
     {
      OFFSET 0.000000 -1.500329 6.694466
     }
    }
   }
  }
 }
}
MOTION
Frames: 10
Frame Time: 0.008333
101.218036 89.072296 -46.002682 -49.231128 -14.868795 1.018150 3.109199 4.519315 -0.266858 1.754085 2.603510 -0.131293 2.192239 3.254919 -0.151681 1.754085 2.603510 -0.131293 0.567750 25.784398 2.377756 0.076833 2.379677 2.463234 -10.505256 1.066426 -1.786695 -5.650473 1.859941 94.108263 -2.377092 6.727373 -2.713054 -4.384896 1.428934 -0.233344 -4.256947 -2.164218 -2.717418 3.581291 -1.792160 -86.246521 6.904134 11.250777 8.779422 0.475246 15.905134 1.208252 -0.081938 -5.185513 -8.364493 -7.627145 21.833574 -6.142263 -0.267828 4.362101 8.520217 -0.058041 -0.338887 0.125370 2.532594 17.521807 -0.123974 2.606255 1.027875 -1.470082 6.424676 -5.528703 3.322314 -0.009858 0.088436 -0.188186
101.206305 89.071251 -46.076354 -49.213441 -14.834401 1.042245 3.110169 4.510027 -0.316747 1.758341 2.591012 -0.141069 2.197490 3.239345 -0.163933 1.758341 2.591012 -0.141069 0.545596 25.806755 2.407326 0.046027 2.408607 2.500894 -10.479587 1.008436 -1.769668 -5.635589 1.872478 94.055236 -2.351396 6.938689 -2.697401 -4.362138 1.425528 -0.358474 -4.268914 -2.178476 -2.719242 3.555456 -1.803194 -86.203578 6.888106 11.305337 8.776666 0.536707 15.909434 1.236396 -0.257110 -4.818648 -8.360210 -7.794425 21.959713 -6.250958 -0.656188 3.601846 8.916470 -0.097560 -0.065368 -0.197220 2.521195 17.472686 -0.105587 2.609805 0.995558 -1.485883 6.403041 -5.495293 3.338524 -0.010234 0.101052 -0.182433
101.190176 89.071803 -46.151250 -49.203872 -14.802498 1.055964 3.106007 4.511642 -0.353719 1.766932 2.577631 -0.150813 2.208163 3.222669 -0.176119 1.766932 2.577631 -0.150813 0.521957 25.825023 2.436998 0.013561 2.432475 2.538968 -10.445656 0.948399 -1.759703 -5.613244 1.899603 94.002069 -2.324525 7.119920 -2.672094 -4.353775 1.420626 -0.465400 -4.270346 -2.197208 -2.721789 3.545955 -1.823692 -86.164832 6.883090 11.389120 8.785050 0.586806 15.921966 1.285005 -0.474310 -4.425229 -8.338707 -7.947507 22.004841 -6.351780 -0.926838 2.796340 9.282133 -0.121402 0.214444 -0.439430 2.529127 17.431821 -0.066953 2.620138 0.954473 -1.506916 6.370644 -5.443599 3.352051 -0.010174 0.099950 -0.175339
101.172855 89.073069 -46.228051 -49.211043 -14.756755 1.069294 3.105830 4.511574 -0.386460 1.779060 2.562009 -0.161165 2.223253 3.203196 -0.189052 1.779060 2.562009 -0.161165 0.498585 25.839536 2.467753 -0.018878 2.451715 2.578136 -10.402597 0.890212 -1.752139 -5.587308 1.938189 93.945445 -2.295478 7.272463 -2.632292 -4.357642 1.424061 -0.559809 -4.261139 -2.217652 -2.721758 3.553284 -1.855100 -86.132790 6.890104 11.495510 8.798993 0.624578 15.928886 1.346894 -0.717270 -4.025928 -8.303785 -8.037774 21.970467 -6.421590 -1.081029 1.973892 9.530502 -0.132449 0.477526 -0.555152 2.546163 17.383087 -0.023362 2.629155 0.904210 -1.531197 6.346548 -5.387018 3.364190 -0.010492 0.098165 -0.168639
101.153013 89.074835 -46.308310 -49.232590 -14.699190 1.067466 3.110177 4.509434 -0.401488 1.794938 2.543603 -0.172816 2.243025 3.180252 -0.203598 1.794938 2.543603 -0.172816 0.475798 25.851949 2.499829 -0.050991 2.468402 2.618601 -10.355513 0.836629 -1.741086 -5.560842 1.983034 93.883207 -2.268587 7.406115 -2.580310 -4.371495 1.438412 -0.647680 -4.243700 -2.235800 -2.715153 3.570970 -1.894052 -86.107778 6.909686 11.607536 8.813924 0.644187 15.917870 1.412249 -0.967859 -3.625176 -8.234092 -8.041909 21.857184 -6.454131 -1.120163 1.168089 9.581468 -0.122563 0.711093 -0.507005 2.560770 17.328757 0.033696 2.629344 0.842795 -1.553164 6.354246 -5.329812 3.372236 -0.011321 0.100039 -0.163112
101.131718 89.076858 -46.391641 -49.275126 -14.628855 1.056402 3.125309 4.500029 -0.403848 1.815086 2.523579 -0.186031 2.268126 3.155295 -0.220079 1.815086 2.523579 -0.186031 0.452467 25.863203 2.532439 -0.083826 2.483693 2.659772 -10.309819 0.786093 -1.724629 -5.528380 2.027664 93.817648 -2.258413 7.527176 -2.529569 -4.388207 1.457013 -0.724409 -4.221845 -2.253213 -2.700251 3.585125 -1.934466 -86.087375 6.937828 11.698568 8.827294 0.646660 15.889437 1.471338 -1.195150 -3.225929 -8.132587 -7.948709 21.664161 -6.443855 -1.081197 0.383722 9.459890 -0.088017 0.927218 -0.346246 2.570763 17.268509 0.094538 2.619508 0.769154 -1.569381 6.404661 -5.270774 3.375865 -0.012502 0.104352 -0.158742
101.111746 89.078896 -46.476566 -49.346232 -14.541712 1.054672 3.158179 4.476043 -0.408530 1.839226 2.503804 -0.200578 2.298209 3.130658 -0.238198 1.839226 2.503803 -0.200578 0.428519 25.873533 2.564348 -0.117181 2.497842 2.700315 -10.268781 0.735193 -1.706932 -5.478382 2.069733 93.753499 -2.277747 7.635064 -2.495347 -4.399984 1.475016 -0.778605 -4.204413 -2.275198 -2.681631 3.591874 -1.971695 -86.067139 6.967977 11.754296 8.835742 0.638780 15.848780 1.515691 -1.375208 -2.832346 -8.022799 -7.745123 21.386080 -6.377556 -1.022217 -0.381274 9.247805 -0.035981 1.138192 -0.160165 2.579657 17.198704 0.142808 2.610208 0.683759 -1.582297 6.478380 -5.205390 3.377832 -0.014579 0.106673 -0.155571
101.094168 89.080934 -46.563031 -49.445881 -14.436576 1.066906 3.209067 4.436574 -0.418706 1.866653 2.484377 -0.216492 2.332396 3.106469 -0.258005 1.866653 2.484377 -0.216492 0.404874 25.882906 2.595808 -0.150111 2.510809 2.740297 -10.232794 0.679782 -1.690437 -5.407904 2.111041 93.692481 -2.328213 7.734005 -2.478037 -4.408431 1.492260 -0.816325 -4.195560 -2.304039 -2.661440 3.595541 -2.001979 -86.045348 6.995636 11.777661 8.834674 0.629401 15.801007 1.543684 -1.502491 -2.445500 -7.919464 -7.460710 21.006330 -6.254425 -0.933758 -1.102981 8.975456 0.020096 1.335300 0.019691 2.593963 17.117867 0.175992 2.618608 0.586974 -1.592698 6.550697 -5.132064 3.378093 -0.016532 0.105785 -0.152340
101.079544 89.083246 -46.651004 -49.565442 -14.315540 1.094686 3.272010 4.385671 -0.438600 1.895648 2.464782 -0.233772 2.368534 3.082079 -0.279513 1.895648 2.464781 -0.233772 0.381632 25.890797 2.627788 -0.182728 2.521967 2.780747 -10.200916 0.616463 -1.673755 -5.318873 2.154530 93.631259 -2.404356 7.835393 -2.470911 -4.421615 1.506990 -0.850468 -4.192662 -2.339825 -2.638183 3.596489 -2.020119 -86.024077 7.016289 11.771916 8.824312 0.627692 15.751936 1.562767 -1.582849 -2.060468 -7.833058 -7.144657 20.507948 -6.079458 -0.818061 -1.759277 8.679592 0.068070 1.513700 0.159525 2.612717 17.026678 0.192004 2.651738 0.479497 -1.600173 6.608130 -5.048815 3.376330 -0.016560 0.100685 -0.148200
101.068186 89.086334 -46.740585 -49.703402 -14.182391 1.140786 3.346318 4.323254 -0.472158 1.924866 2.446695 -0.251904 2.404947 3.059582 -0.302080 1.924866 2.446695 -0.251904 0.358916 25.896878 2.660805 -0.215014 2.530923 2.822199 -10.171057 0.544990 -1.654874 -5.210673 2.202428 93.564001 -2.499151 7.947424 -2.472738 -4.443965 1.513828 -0.883168 -4.192888 -2.381008 -2.612865 3.594300 -2.027129 -86.004535 7.029202 11.743372 8.807772 0.637294 15.702644 1.579132 -1.609734 -1.671008 -7.768127 -6.820821 19.881024 -5.847625 -0.746521 -2.322838 8.424976 0.102116 1.666129 0.208207 2.638926 16.928457 0.191185 2.704321 0.361725 -1.606995 6.645135 -4.953043 3.376750 -0.015015 0.089230 -0.145999
